<svg xmlns="http://www.w3.org/2000/svg" width="375" viewBox="0 0 375 375" height="375" version="1.0"><defs><clipPath id="a"><path d="M 37.5 100.925781 L 337.5 100.925781 L 337.5 274.175781 L 37.5 274.175781 Z M 37.5 100.925781"/></clipPath></defs><path fill="#919191" d="M 97.386719 7.644531 L 97.386719 367.644531 C 98.4375 367.71875 99.492188 367.71875 100.546875 367.71875 L 273.847656 367.71875 L 273.847656 7.644531 Z M 300.960938 7.644531 L 273.847656 7.644531 L 273.847656 367.644531 L 274.453125 367.644531 C 318.285156 367.644531 356.773438 331.839844 359.933594 288.121094 L 374.773438 87.09375 C 378.011719 43.449219 344.796875 7.644531 300.960938 7.644531 Z M 74.039062 7.644531 C 30.203125 7.644531 -3.011719 43.449219 0.226562 87.167969 L 15.066406 288.199219 C 18.226562 330.859375 54.980469 365.984375 97.460938 367.644531 L 97.460938 7.644531 Z M 74.039062 7.644531"/><g clip-path="url(#a)"><path fill="#FFF" d="M 37.503906 184 L 337.480469 100.917969 L 243.980469 274.144531 L 157.785156 216.40625 L 337.039062 101.207031 L 147.800781 214.457031 L 136.113281 272.683594 L 113.226562 208.363281 L 337.007812 101.195312 L 109.089844 203.980469 Z M 37.503906 184" fill-rule="evenodd"/></g><path fill="#FFF" d="M 141.9375 273.992188 L 180.503906 238.847656 L 155.710938 220.585938 Z M 141.9375 273.992188" fill-rule="evenodd"/></svg>