<svg xmlns="http://www.w3.org/2000/svg" width="375" viewBox="0 0 375 375" height="375" version="1.0"><defs><clipPath id="a"><path d="M 44.925781 148.226562 L 329.925781 148.226562 L 329.925781 312.476562 L 44.925781 312.476562 Z M 44.925781 148.226562"/></clipPath><clipPath id="b"><path d="M 144 261 L 181 261 L 181 312.476562 L 144 312.476562 Z M 144 261"/></clipPath><clipPath id="c"><path d="M 80 43 L 299 43 L 299 161.648438 L 80 161.648438 Z M 80 43"/></clipPath></defs><path fill="#D00" d="M 97.386719 0 L 97.386719 360 C 98.4375 360.074219 99.492188 360.074219 100.546875 360.074219 L 273.847656 360.074219 L 273.847656 0 L 97.386719 0 M 300.960938 0 L 273.847656 0 L 273.847656 360 L 274.453125 360 C 318.285156 360 356.773438 324.195312 359.933594 280.476562 L 374.773438 79.445312 C 378.011719 35.804688 344.796875 0 300.960938 0 M 74.039062 0 C 30.203125 0 -3.011719 35.804688 0.226562 79.523438 L 15.066406 280.550781 C 18.226562 323.214844 54.980469 358.339844 97.460938 360 L 97.460938 0 L 74.039062 0"/><g clip-path="url(#a)"><path fill="#FFF" d="M 44.929688 226.984375 L 329.90625 148.226562 L 241.082031 312.445312 L 159.195312 257.707031 L 329.484375 148.5 L 149.710938 255.859375 L 138.605469 311.058594 L 116.863281 250.082031 L 329.457031 148.488281 L 112.933594 245.925781 Z M 44.929688 226.984375" fill-rule="evenodd"/></g><g clip-path="url(#b)"><path fill="#FFF" d="M 144.140625 312.296875 L 180.78125 278.980469 L 157.226562 261.667969 Z M 144.140625 312.296875" fill-rule="evenodd"/></g><g clip-path="url(#c)"><path fill="#FFF" d="M 171.203125 43.324219 L 181.863281 127.121094 L 197.316406 127.121094 L 207.976562 43.324219 Z M 180.984375 135.820312 L 180.984375 153.027344 L 198.195312 153.027344 L 198.195312 135.820312 Z M 189.605469 176 C 188.882812 176 188.15625 176.019531 187.4375 176.03125 C 186.824219 176.039062 186.214844 176.058594 185.601562 176.078125 L 185.066406 176.09375 C 184.414062 176.113281 183.769531 176.140625 183.121094 176.171875 C 182.515625 176.203125 181.914062 176.226562 181.316406 176.265625 C 181.207031 176.273438 181.09375 176.273438 180.984375 176.28125 C 161.148438 177.5 143.320312 182.789062 130.128906 189.3125 C 122.59375 193.042969 116.578125 197.191406 112.652344 200.996094 C 108.730469 204.800781 107.238281 208.207031 107.238281 209.695312 C 107.238281 211.179688 108.355469 213.367188 112.105469 216.023438 C 115.851562 218.679688 121.828125 221.386719 129.390625 223.652344 C 144.519531 228.1875 165.941406 231.109375 189.605469 231.109375 C 213.269531 231.109375 234.707031 228.1875 249.835938 223.652344 C 257.398438 221.386719 263.375 218.679688 267.125 216.019531 C 270.871094 213.363281 271.992188 211.179688 271.992188 209.695312 C 271.992188 208.207031 270.496094 204.800781 266.574219 200.996094 C 262.652344 197.191406 256.636719 193.042969 249.097656 189.3125 C 235.910156 182.789062 218.066406 177.503906 198.226562 176.28125 C 198.117188 176.273438 198.007812 176.273438 197.894531 176.265625 C 197.296875 176.226562 196.695312 176.203125 196.089844 176.171875 C 195.445312 176.140625 194.796875 176.117188 194.144531 176.09375 C 194.074219 176.089844 194.007812 176.078125 193.941406 176.078125 C 193.824219 176.074219 193.710938 176.082031 193.59375 176.078125 C 192.992188 176.058594 192.394531 176.039062 191.789062 176.03125 C 191.066406 176.019531 190.335938 176 189.605469 176 Z M 189.605469 185.390625 C 202.863281 185.390625 214.855469 187.605469 223.113281 190.929688 C 227.242188 192.59375 230.40625 194.550781 232.3125 196.363281 C 234.21875 198.175781 234.777344 199.578125 234.777344 200.773438 C 234.777344 201.972656 234.21875 203.375 232.3125 205.1875 C 231.519531 205.945312 230.492188 206.722656 229.28125 207.496094 C 226.792969 199.554688 209.976562 193.410156 189.589844 193.410156 C 169.214844 193.410156 152.417969 199.546875 149.914062 207.480469 C 148.707031 206.707031 147.6875 205.941406 146.898438 205.1875 C 144.992188 203.375 144.433594 201.972656 144.433594 200.777344 C 144.433594 199.574219 144.992188 198.175781 146.898438 196.363281 C 148.804688 194.546875 151.96875 192.59375 156.097656 190.929688 C 164.355469 187.605469 176.34375 185.386719 189.605469 185.386719 Z M 97.878906 210.398438 C 86.777344 217.289062 80.324219 225.503906 80.324219 234.328125 C 80.324219 258.636719 129.246094 278.339844 189.589844 278.339844 C 249.933594 278.339844 298.855469 258.632812 298.855469 234.328125 C 298.855469 225.515625 292.421875 217.3125 281.347656 210.429688 C 281.042969 215.816406 277.402344 220.25 272.554688 223.683594 C 267.492188 227.273438 260.714844 230.191406 252.519531 232.648438 C 236.136719 237.558594 214.03125 240.5 189.605469 240.5 C 165.183594 240.5 143.078125 237.558594 126.691406 232.648438 C 118.5 230.191406 111.734375 227.273438 106.671875 223.683594 C 101.816406 220.242188 98.171875 215.800781 97.878906 210.398438 Z M 97.878906 210.398438"/></g></svg>