<svg width="375" height="375" xmlns="http://www.w3.org/2000/svg" version="1.0">
 <defs>
  <clipPath id="a">
   <path id="svg_1" d="m44.92578,148.22656l285,0l0,164.25l-285,0l0,-164.25zm0,0"/>
  </clipPath>
  <clipPath id="b">
   <path id="svg_2" d="m144,261l37,0l0,51.47656l-37,0l0,-51.47656zm0,0"/>
  </clipPath>
  <clipPath id="c">
   <path id="svg_3" d="m80,43l219,0l0,118.64844l-219,0l0,-118.64844zm0,0"/>
  </clipPath>
 </defs>
 <g>
  <title>Layer 1</title>
  <path id="svg_4" d="m97.38671,7.46289l0,360c1.05078,0.07422 2.10547,0.07422 3.16016,0.07422l173.30078,0l0,-360.07422l-176.46094,0m203.57422,0l-27.11328,0l0,360l0.60547,0c43.83203,0 82.32031,-35.80469 85.48046,-79.52344l14.83985,-201.03125c3.23828,-43.64062 -29.97656,-79.44531 -73.8125,-79.44531m-226.92188,0c-43.83593,0 -77.05078,35.80469 -73.8125,79.52344l14.83985,201.02734c3.16015,42.66406 39.91406,77.78906 82.39453,79.44922l0,-360l-23.42188,0" fill="#FF8000"/>
  <g id="svg_5" clip-path="url(#a)">
   <path id="svg_6" fill-rule="evenodd" d="m44.92969,226.98438l284.97656,-78.75782l-88.82422,164.21875l-81.88672,-54.73828l170.28907,-109.20703l-179.77344,107.35938l-11.10547,55.19921l-21.74219,-60.97656l212.59375,-101.59375l-216.52344,97.4375l-68.0039,-18.9414zm0,0" fill="#FFF"/>
  </g>
  <g id="svg_7" clip-path="url(#b)">
   <path id="svg_8" fill-rule="evenodd" d="m144.14063,312.29688l36.64062,-33.31641l-23.55469,-17.3125l-13.08593,50.62891zm0,0" fill="#FFF"/>
  </g>
  <g id="svg_9" clip-path="url(#c)">
   <path id="svg_10" d="m171.20313,43.32422l10.66015,83.79687l15.45313,0l10.66015,-83.79687l-36.77343,0zm9.78125,92.49609l0,17.20703l17.21093,0l0,-17.20703l-17.21093,0zm8.62109,40.17969c-0.72266,0 -1.44922,0.01953 -2.16797,0.03125c-0.61328,0.00781 -1.22266,0.02734 -1.83594,0.04688l-0.53515,0.01562c-0.65235,0.01953 -1.29688,0.04688 -1.94532,0.07813c-0.60546,0.03125 -1.20703,0.05468 -1.80468,0.09375c-0.10938,0.00781 -0.22266,0.00781 -0.33203,0.01562c-19.83594,1.21875 -37.66407,6.50781 -50.85547,13.03125c-7.53516,3.73047 -13.55078,7.87891 -17.47657,11.68359c-3.92187,3.80469 -5.41406,7.21094 -5.41406,8.69922c0,1.48438 1.11719,3.67188 4.86719,6.32813c3.74609,2.65625 9.72266,5.36328 17.28516,7.6289c15.1289,4.53516 36.55078,7.45704 60.21484,7.45704c23.66406,0 45.10156,-2.92188 60.23047,-7.45704c7.5625,-2.26562 13.53906,-4.97265 17.28906,-7.63281c3.74609,-2.65625 4.86719,-4.83984 4.86719,-6.32422c0,-1.48828 -1.4961,-4.89453 -5.41797,-8.69922c-3.92188,-3.80468 -9.9375,-7.95312 -17.47656,-11.68359c-13.1875,-6.52344 -31.03125,-11.80859 -50.8711,-13.03125c-0.10937,-0.00781 -0.21875,-0.00781 -0.33203,-0.01562c-0.59765,-0.03907 -1.19922,-0.0625 -1.80469,-0.09375c-0.64453,-0.03125 -1.29296,-0.05469 -1.94531,-0.07813c-0.07031,-0.00391 -0.13672,-0.01562 -0.20312,-0.01562c-0.11719,-0.00391 -0.23047,0.0039 -0.34766,0c-0.60156,-0.01954 -1.19922,-0.03907 -1.80469,-0.04688c-0.72265,-0.01172 -1.45312,-0.03125 -2.18359,-0.03125zm0,9.39063c13.25781,0 25.25,2.21484 33.50781,5.53906c4.12891,1.66406 7.29297,3.62109 9.19922,5.43359c1.90625,1.8125 2.46484,3.21485 2.46484,4.41016c0,1.19922 -0.55859,2.60156 -2.46484,4.41406c-0.79297,0.75781 -1.82031,1.53516 -3.03125,2.30859c-2.48828,-7.9414 -19.30469,-14.08593 -39.69141,-14.08593c-20.375,0 -37.17187,6.13672 -39.67578,14.07031c-1.20703,-0.77344 -2.22656,-1.53906 -3.01562,-2.29297c-1.90625,-1.8125 -2.46485,-3.21484 -2.46485,-4.41016c0,-1.20312 0.5586,-2.60156 2.46485,-4.41406c1.90625,-1.8164 5.07031,-3.76953 9.19922,-5.43359c8.25781,-3.32422 20.24609,-5.54297 33.50781,-5.54297l0,0.00391zm-91.72656,25.00781c-11.10157,6.89062 -17.55469,15.10547 -17.55469,23.92969c0,24.30859 48.92187,44.01171 109.26562,44.01171c60.34375,0 109.26563,-19.70703 109.26563,-44.01171c0,-8.8125 -6.43359,-17.01563 -17.50781,-23.89844c-0.30469,5.38672 -3.94532,9.82031 -8.79297,13.2539c-5.0625,3.58985 -11.83985,6.50782 -20.03516,8.96485c-16.38281,4.91015 -38.48828,7.85156 -62.91406,7.85156c-24.42188,0 -46.52734,-2.94141 -62.91406,-7.85156c-8.19141,-2.45703 -14.95703,-5.375 -20.01953,-8.96485c-4.85547,-3.4414 -8.5,-7.88281 -8.79297,-13.28515zm0,0" fill="#FFF"/>
  </g>
 </g>
</svg>