<svg xmlns="http://www.w3.org/2000/svg" xmlns:xlink="http://www.w3.org/1999/xlink" width="375" viewBox="0 0 375 375" height="375" version="1.0"><defs><clipPath id="b"><path d="M 150.050781 0 L 225.050781 0 L 225.050781 37.496094 L 150.050781 37.496094 Z M 150.050781 0"/></clipPath><clipPath id="e"><path d="M 0.199219 0.199219 L 128 0.199219 L 128 128 L 0.199219 128 Z M 0.199219 0.199219"/></clipPath><clipPath id="d"><path d="M0 0H129V129H0z"/></clipPath><clipPath id="h"><path d="M 1 0.199219 L 128.679688 0.199219 L 128.679688 128 L 1 128 Z M 1 0.199219"/></clipPath><clipPath id="g"><path d="M0 0H129V129H0z"/></clipPath><clipPath id="k"><path d="M 1 1 L 128.679688 1 L 128.679688 128.679688 L 1 128.679688 Z M 1 1"/></clipPath><clipPath id="j"><path d="M0 0H129V129H0z"/></clipPath><clipPath id="n"><path d="M 0.199219 1 L 128 1 L 128 128.679688 L 0.199219 128.679688 Z M 0.199219 1"/></clipPath><clipPath id="m"><path d="M0 0H129V129H0z"/></clipPath><mask id="c"><g filter="url(#a)"><path fill-opacity=".498" d="M-37.5 -37.5H412.5V412.5H-37.5z"/></g></mask><mask id="f"><g filter="url(#a)"><path fill-opacity=".498" d="M-37.5 -37.5H412.5V412.5H-37.5z"/></g></mask><mask id="i"><g filter="url(#a)"><path fill-opacity=".498" d="M-37.5 -37.5H412.5V412.5H-37.5z"/></g></mask><mask id="l"><g filter="url(#a)"><path fill-opacity=".498" d="M-37.5 -37.5H412.5V412.5H-37.5z"/></g></mask><filter x="0%" y="0%" width="100%" xmlns:xlink="http://www.w3.org/1999/xlink" xlink:type="simple" xlink:actuate="onLoad" height="100%" id="a" xlink:show="other"><feColorMatrix values="0 0 0 0 1 0 0 0 0 1 0 0 0 0 1 0 0 0 1 0" color-interpolation-filters="sRGB"/></filter></defs><g clip-path="url(#b)"><path d="M 187.554688 0.0234375 L 168.800781 18.746094 L 150.050781 37.46875 L 225.050781 37.46875 L 206.304688 18.746094 L 187.554688 0.0195312 Z M 187.554688 0.0234375"/></g><g mask="url(#c)"><g><g clip-path="url(#d)" transform="translate(37 37)"><g clip-path="url(#e)"><path fill="#222" d="M 64.25 0.5 C 29.042969 0.5 0.5 29.042969 0.5 64.25 C 0.5 99.457031 29.042969 128 64.25 128 C 99.457031 128 128 99.457031 128 64.25 C 128 29.042969 99.457031 0.5 64.25 0.5"/></g></g></g></g><g mask="url(#f)"><g><g clip-path="url(#g)" transform="translate(209 37)"><g clip-path="url(#h)"><path fill="#222" d="M 64.785156 0.5 C 29.574219 0.5 1.035156 29.042969 1.035156 64.25 C 1.035156 99.457031 29.574219 128 64.785156 128 C 99.992188 128 128.535156 99.457031 128.535156 64.25 C 128.535156 29.042969 99.992188 0.5 64.785156 0.5"/></g></g></g></g><g mask="url(#i)"><g><g clip-path="url(#j)" transform="translate(209 209)"><g clip-path="url(#k)"><path fill="#222" d="M 64.785156 1.035156 C 29.574219 1.035156 1.035156 29.574219 1.035156 64.785156 C 1.035156 99.992188 29.574219 128.535156 64.785156 128.535156 C 99.992188 128.535156 128.535156 99.992188 128.535156 64.785156 C 128.535156 29.574219 99.992188 1.035156 64.785156 1.035156"/></g></g></g></g><g mask="url(#l)"><g><g clip-path="url(#m)" transform="translate(37 209)"><g clip-path="url(#n)"><path fill="#222" d="M 64.25 1.035156 C 29.042969 1.035156 0.5 29.574219 0.5 64.785156 C 0.5 99.992188 29.042969 128.535156 64.25 128.535156 C 99.457031 128.535156 128 99.992188 128 64.785156 C 128 29.574219 99.457031 1.035156 64.25 1.035156"/></g></g></g></g><path fill="#03989E" d="M 120.101562 105.109375 L 255.101562 105.109375 L 255.101562 270.105469 L 120.101562 270.105469 L 120.101562 105.109375"/><path fill="#03989E" d="M 292.59375 83.9375 C 283.46875 74.808594 268.671875 74.808594 259.546875 83.9375 L 187.4375 156.03125 L 115.335938 83.9375 C 106.207031 74.808594 91.40625 74.808594 82.277344 83.9375 C 73.148438 93.0625 73.148438 107.855469 82.277344 116.980469 L 154.386719 189.082031 L 85.78125 257.679688 C 76.648438 266.804688 76.648438 281.597656 85.78125 290.722656 C 94.902344 299.851562 109.703125 299.851562 118.832031 290.722656 L 187.4375 222.128906 L 256.042969 290.722656 C 265.167969 299.851562 279.964844 299.851562 289.089844 290.722656 C 298.21875 281.597656 298.21875 266.804688 289.089844 257.679688 L 220.492188 189.082031 L 292.59375 116.980469 C 301.722656 107.855469 301.722656 93.0625 292.59375 83.9375"/><path fill="#3CC800" d="M 187.628906 172.628906 C 179.34375 172.628906 172.628906 179.34375 172.628906 187.628906 C 172.628906 195.914062 179.34375 202.628906 187.628906 202.628906 C 195.914062 202.628906 202.628906 195.914062 202.628906 187.628906 C 202.628906 179.34375 195.914062 172.628906 187.628906 172.628906"/><path fill="#D9D9D9" d="M 164.964844 105.105469 L 209.964844 105.105469 L 209.964844 150.105469 L 164.964844 150.105469 L 164.964844 105.105469"/><path fill="#03989E" d="M 172.636719 97.59375 L 202.636719 97.59375 L 202.636719 112.59375 L 172.636719 112.59375 L 172.636719 97.59375"/></svg>