<svg xmlns="http://www.w3.org/2000/svg" xmlns:xlink="http://www.w3.org/1999/xlink" width="375" viewBox="0 0 375 375" height="375" version="1.0"><defs><clipPath id="c"><path d="M0 0H160V160H0z"/></clipPath><clipPath id="f"><path d="M 0.28125 0 L 159.878906 0 L 159.878906 159 L 0.28125 159 Z M 0.28125 0"/></clipPath><clipPath id="e"><path d="M0 0H160V160H0z"/></clipPath><clipPath id="i"><path d="M 0.28125 0.28125 L 159.878906 0.28125 L 159.878906 159.878906 L 0.28125 159.878906 Z M 0.28125 0.28125"/></clipPath><clipPath id="h"><path d="M0 0H160V160H0z"/></clipPath><clipPath id="l"><path d="M 0 0.28125 L 159 0.28125 L 159 159.878906 L 0 159.878906 Z M 0 0.28125"/></clipPath><clipPath id="k"><path d="M0 0H160V160H0z"/></clipPath><mask id="b"><g filter="url(#a)"><path fill-opacity=".498" d="M-37.5 -37.5H412.5V412.5H-37.5z"/></g></mask><mask id="d"><g filter="url(#a)"><path fill-opacity=".498" d="M-37.5 -37.5H412.5V412.5H-37.5z"/></g></mask><mask id="g"><g filter="url(#a)"><path fill-opacity=".498" d="M-37.5 -37.5H412.5V412.5H-37.5z"/></g></mask><mask id="j"><g filter="url(#a)"><path fill-opacity=".498" d="M-37.5 -37.5H412.5V412.5H-37.5z"/></g></mask><filter x="0%" y="0%" width="100%" xmlns:xlink="http://www.w3.org/1999/xlink" xlink:type="simple" xlink:actuate="onLoad" height="100%" id="a" xlink:show="other"><feColorMatrix values="0 0 0 0 1 0 0 0 0 1 0 0 0 0 1 0 0 0 1 0" color-interpolation-filters="sRGB"/></filter></defs><g mask="url(#b)"><g><g clip-path="url(#c)"><path fill="#222" d="M 79.5 0 C 35.59375 0 0 35.59375 0 79.5 C 0 123.40625 35.59375 159 79.5 159 C 123.40625 159 159 123.40625 159 79.5 C 159 35.59375 123.40625 0 79.5 0"/></g></g></g><g mask="url(#d)"><g><g clip-path="url(#e)" transform="translate(215)"><g clip-path="url(#f)"><path fill="#222" d="M 80.167969 0 C 36.261719 0 0.667969 35.59375 0.667969 79.5 C 0.667969 123.40625 36.261719 159 80.167969 159 C 124.074219 159 159.667969 123.40625 159.667969 79.5 C 159.667969 35.59375 124.074219 0 80.167969 0"/></g></g></g></g><g mask="url(#g)"><g><g clip-path="url(#h)" transform="translate(215 215)"><g clip-path="url(#i)"><path fill="#222" d="M 80.167969 0.667969 C 36.261719 0.667969 0.667969 36.261719 0.667969 80.167969 C 0.667969 124.074219 36.261719 159.667969 80.167969 159.667969 C 124.074219 159.667969 159.667969 124.074219 159.667969 80.167969 C 159.667969 36.261719 124.074219 0.667969 80.167969 0.667969"/></g></g></g></g><g mask="url(#j)"><g><g clip-path="url(#k)" transform="translate(0 215)"><g clip-path="url(#l)"><path fill="#222" d="M 79.5 0.667969 C 35.59375 0.667969 0 36.261719 0 80.167969 C 0 124.074219 35.59375 159.667969 79.5 159.667969 C 123.40625 159.667969 159 124.074219 159 80.167969 C 159 36.261719 123.40625 0.667969 79.5 0.667969"/></g></g></g></g><path fill="#03989E" d="M 103.25 84.511719 L 272 84.511719 L 272 290.753906 L 103.25 290.753906 L 103.25 84.511719"/><path fill="#03989E" d="M 319.410156 58.078125 C 307.980469 46.636719 289.449219 46.636719 278.019531 58.078125 L 187.703125 148.433594 L 97.394531 58.078125 C 85.960938 46.636719 67.425781 46.636719 55.992188 58.078125 C 44.558594 69.515625 44.558594 88.054688 55.992188 99.492188 L 146.308594 189.859375 L 60.382812 275.832031 C 48.941406 287.273438 48.941406 305.8125 60.382812 317.25 C 71.804688 328.6875 90.34375 328.6875 101.773438 317.25 L 187.703125 231.277344 L 273.628906 317.25 C 285.0625 328.6875 303.589844 328.6875 315.023438 317.25 C 326.453125 305.8125 326.453125 287.273438 315.023438 275.832031 L 229.105469 189.859375 L 319.410156 99.492188 C 330.84375 88.054688 330.84375 69.515625 319.410156 58.078125"/><path fill="#3CC800" d="M 187.660156 168.910156 C 177.304688 168.910156 168.910156 177.304688 168.910156 187.660156 C 168.910156 198.015625 177.304688 206.410156 187.660156 206.410156 C 198.015625 206.410156 206.410156 198.015625 206.410156 187.660156 C 206.410156 177.304688 198.015625 168.910156 187.660156 168.910156"/><path fill="#D9D9D9" d="M 159.332031 84.507812 L 215.582031 84.507812 L 215.582031 140.757812 L 159.332031 140.757812 L 159.332031 84.507812"/><path fill="#03989E" d="M 168.921875 75.117188 L 206.417969 75.117188 L 206.417969 93.867188 L 168.921875 93.867188 L 168.921875 75.117188"/></svg>