<?xml version="1.0" encoding="UTF-8"?><svg xmlns="http://www.w3.org/2000/svg" xmlns:xlink="http://www.w3.org/1999/xlink" contentScriptType="text/ecmascript" width="375" zoomAndPan="magnify" contentStyleType="text/css" viewBox="0 0 375 374.999991" height="374.999991" preserveAspectRatio="xMidYMid meet" version="1.0"><path fill="rgb(0%, 50.19989%, 21.569824%)" d="M 97.386719 7.644531 L 97.386719 367.644531 C 98.4375 367.71875 99.492188 367.71875 100.546875 367.71875 L 273.847656 367.71875 L 273.847656 7.644531 Z M 300.960938 7.644531 L 273.847656 7.644531 L 273.847656 367.644531 L 274.453125 367.644531 C 318.285156 367.644531 356.773438 331.839844 359.933594 288.121094 L 374.773438 87.09375 C 378.011719 43.449219 344.796875 7.644531 300.960938 7.644531 Z M 74.039062 7.644531 C 30.203125 7.644531 -3.011719 43.449219 0.226562 87.167969 L 15.066406 288.199219 C 18.226562 330.859375 54.980469 365.984375 97.460938 367.644531 L 97.460938 7.644531 Z M 74.039062 7.644531 " fill-opacity="1" fill-rule="nonzero"/><path fill="rgb(100%, 100%, 100%)" d="M 168.566406 52.570312 L 181 150.292969 L 199.015625 150.292969 L 211.449219 52.570312 Z M 179.972656 160.4375 L 179.972656 180.503906 L 200.042969 180.503906 L 200.042969 160.4375 Z M 190.027344 207.292969 C 189.183594 207.292969 188.335938 207.316406 187.5 207.332031 C 186.78125 207.34375 186.070312 207.363281 185.359375 207.386719 L 184.734375 207.402344 C 183.972656 207.429688 183.21875 207.457031 182.464844 207.496094 C 181.761719 207.53125 181.058594 207.558594 180.359375 207.605469 C 180.230469 207.613281 180.101562 207.617188 179.976562 207.625 C 156.84375 209.046875 136.046875 215.214844 120.667969 222.820312 C 111.878906 227.167969 104.863281 232.007812 100.289062 236.445312 C 95.710938 240.882812 93.972656 244.855469 93.972656 246.589844 C 93.972656 248.324219 95.277344 250.871094 99.644531 253.96875 C 104.015625 257.066406 110.984375 260.222656 119.804688 262.867188 C 137.445312 268.15625 162.429688 271.566406 190.027344 271.566406 C 217.621094 271.566406 242.625 268.15625 260.265625 262.867188 C 269.085938 260.222656 276.054688 257.066406 280.425781 253.96875 C 284.796875 250.871094 286.101562 248.324219 286.101562 246.589844 C 286.101562 244.855469 284.359375 240.882812 279.785156 236.445312 C 275.210938 232.007812 268.195312 227.167969 259.40625 222.820312 C 244.027344 215.214844 223.21875 209.046875 200.082031 207.625 C 199.953125 207.617188 199.824219 207.613281 199.695312 207.605469 C 198.996094 207.5625 198.292969 207.53125 197.589844 207.496094 C 196.835938 207.457031 196.082031 207.429688 195.320312 207.40625 C 195.238281 207.402344 195.160156 207.386719 195.082031 207.386719 C 194.945312 207.382812 194.8125 207.390625 194.679688 207.386719 C 193.976562 207.363281 193.277344 207.34375 192.570312 207.332031 C 191.730469 207.316406 190.878906 207.292969 190.027344 207.292969 Z M 190.027344 218.246094 C 205.488281 218.246094 219.472656 220.828125 229.101562 224.707031 C 233.914062 226.648438 237.609375 228.925781 239.832031 231.042969 C 242.050781 233.160156 242.707031 234.789062 242.707031 236.1875 C 242.707031 237.585938 242.050781 239.21875 239.832031 241.332031 C 238.90625 242.214844 237.710938 243.121094 236.296875 244.023438 C 233.394531 234.765625 213.785156 227.601562 190.007812 227.601562 C 166.246094 227.601562 146.65625 234.753906 143.738281 244.007812 C 142.332031 243.109375 141.144531 242.210938 140.222656 241.332031 C 138 239.21875 137.347656 237.585938 137.347656 236.1875 C 137.347656 234.789062 138 233.15625 140.222656 231.042969 C 142.441406 228.925781 146.136719 226.644531 150.953125 224.707031 C 160.582031 220.828125 174.5625 218.242188 190.027344 218.242188 Z M 83.054688 247.410156 C 70.109375 255.445312 62.585938 265.027344 62.585938 275.316406 C 62.585938 303.664062 119.636719 326.640625 190.007812 326.640625 C 260.378906 326.640625 317.429688 303.664062 317.429688 275.316406 C 317.429688 265.039062 309.925781 255.472656 297.015625 247.449219 C 296.65625 253.730469 292.414062 258.898438 286.761719 262.902344 C 280.855469 267.085938 272.949219 270.492188 263.398438 273.355469 C 244.289062 279.085938 218.511719 282.511719 190.027344 282.511719 C 161.546875 282.511719 135.765625 279.085938 116.65625 273.359375 C 107.101562 270.496094 99.214844 267.089844 93.3125 262.902344 C 87.648438 258.890625 83.398438 253.710938 83.058594 247.414062 Z M 83.054688 247.410156 " fill-opacity="1" fill-rule="nonzero"/></svg>