<?xml version="1.0" encoding="UTF-8"?><svg xmlns="http://www.w3.org/2000/svg" xmlns:xlink="http://www.w3.org/1999/xlink" contentScriptType="text/ecmascript" width="375" zoomAndPan="magnify" contentStyleType="text/css" viewBox="0 0 375 374.999991" height="374.999991" preserveAspectRatio="xMidYMid meet" version="1.0"><defs><clipPath id="clip-0"><path d="M 86 100 L 289 100 L 289 323.726562 L 86 323.726562 Z M 86 100 " clip-rule="nonzero"/></clipPath><clipPath id="clip-1"><path d="M 43.628906 51.476562 L 331.628906 51.476562 L 331.628906 196 L 43.628906 196 Z M 43.628906 51.476562 " clip-rule="nonzero"/></clipPath></defs><path fill="rgb(0%, 29.019165%, 67.83905%)" d="M 97.386719 7.644531 L 97.386719 367.644531 C 98.4375 367.71875 99.492188 367.71875 100.546875 367.71875 L 273.847656 367.71875 L 273.847656 7.644531 Z M 300.960938 7.644531 L 273.847656 7.644531 L 273.847656 367.644531 L 274.453125 367.644531 C 318.285156 367.644531 356.773438 331.839844 359.933594 288.121094 L 374.773438 87.09375 C 378.011719 43.449219 344.796875 7.644531 300.960938 7.644531 Z M 74.039062 7.644531 C 30.203125 7.644531 -3.011719 43.449219 0.226562 87.167969 L 15.066406 288.199219 C 18.226562 330.859375 54.980469 365.984375 97.460938 367.644531 L 97.460938 7.644531 Z M 74.039062 7.644531 " fill-opacity="1" fill-rule="nonzero"/><g clip-path="url(#clip-0)"><path fill="rgb(100%, 100%, 100%)" d="M 288.667969 189.867188 Z M 288.667969 189.867188 L 187.660156 100.425781 L 86.589844 189.902344 L 86.589844 317.757812 C 86.589844 321.0625 89.261719 323.710938 92.5625 323.710938 L 155.726562 323.710938 L 155.726562 267.652344 C 155.726562 264.347656 158.375 261.679688 161.679688 261.679688 L 213.578125 261.679688 C 216.878906 261.679688 219.53125 264.347656 219.53125 267.652344 L 219.53125 323.710938 L 282.710938 323.710938 C 286.015625 323.710938 288.664062 321.0625 288.664062 317.757812 L 288.664062 189.859375 Z M 86.589844 189.90625 Z M 86.589844 189.90625 " fill-opacity="1" fill-rule="nonzero"/></g><g clip-path="url(#clip-1)"><path fill="rgb(100%, 100%, 100%)" d="M 187.070312 51.476562 L 43.726562 178.378906 L 58.828125 195.410156 L 187.660156 81.347656 L 316.460938 195.410156 L 331.53125 178.378906 L 188.21875 51.476562 L 187.660156 52.121094 L 187.074219 51.476562 Z M 187.070312 51.476562 " fill-opacity="1" fill-rule="nonzero"/></g><path fill="rgb(100%, 100%, 100%)" d="M 86.589844 69.746094 L 122.929688 69.746094 L 122.613281 91.261719 L 86.589844 123.800781 Z M 86.589844 69.746094 " fill-opacity="1" fill-rule="nonzero"/></svg>