<svg xmlns="http://www.w3.org/2000/svg" width="375" viewBox="0 0 375 375" height="375" version="1.0"><path fill="#222" d="M 60.964844 142.496094 L 6.535156 142.496094 C 2.933594 142.496094 0 139.550781 0 135.941406 L 0 14.058594 C 0 10.449219 2.933594 7.503906 6.535156 7.503906 L 60.964844 7.503906 C 64.566406 7.503906 67.5 10.449219 67.5 14.058594 L 67.5 135.941406 C 67.5 139.550781 64.566406 142.496094 60.964844 142.496094"/><path fill="#222" d="M 60.964844 367.71875 L 6.535156 367.71875 C 2.933594 367.71875 0 364.777344 0 361.167969 L 0 239.28125 C 0 235.671875 2.933594 232.730469 6.535156 232.730469 L 60.964844 232.730469 C 64.566406 232.730469 67.5 235.671875 67.5 239.28125 L 67.5 361.167969 C 67.5 364.777344 64.566406 367.71875 60.964844 367.71875"/><path fill="#FC0" d="M 67.589844 0.0078125 L 307.589844 0.0078125 L 307.589844 374.992188 L 67.589844 374.992188 L 67.589844 0.0078125"/><path fill="#FB0" d="M 67.59375 0 L 307.582031 0 L 307.582031 75 L 67.59375 75 L 67.59375 0"/><path fill="#FB0" d="M 67.589844 300.074219 L 307.589844 300.074219 L 307.589844 375.074219 L 67.589844 375.074219 L 67.589844 300.074219"/><path fill="#222" d="M 368.375 142.496094 L 313.949219 142.496094 C 310.347656 142.496094 307.410156 139.550781 307.410156 135.941406 L 307.410156 14.058594 C 307.410156 10.449219 310.347656 7.503906 313.949219 7.503906 L 368.375 7.503906 C 371.976562 7.503906 374.910156 10.449219 374.910156 14.058594 L 374.910156 135.941406 C 374.910156 139.550781 371.976562 142.496094 368.375 142.496094"/><path fill="#222" d="M 368.375 367.71875 L 313.949219 367.71875 C 310.347656 367.71875 307.410156 364.777344 307.410156 361.167969 L 307.410156 239.28125 C 307.410156 235.671875 310.347656 232.730469 313.949219 232.730469 L 368.375 232.730469 C 371.976562 232.730469 374.910156 235.671875 374.910156 239.28125 L 374.910156 361.167969 C 374.910156 364.777344 371.976562 367.71875 368.375 367.71875"/><path fill="#444" d="M 60.964844 97.5 L 6.535156 97.5 C 2.933594 97.5 0 94.5625 0 90.957031 L 0 14.042969 C 0 10.4375 2.933594 7.5 6.535156 7.5 L 60.964844 7.5 C 64.566406 7.5 67.5 10.4375 67.5 14.042969 L 67.5 90.957031 C 67.5 94.5625 64.566406 97.5 60.964844 97.5"/><path fill="#444" d="M 368.375 97.5 L 313.949219 97.5 C 310.347656 97.5 307.410156 94.5625 307.410156 90.957031 L 307.410156 14.042969 C 307.410156 10.4375 310.347656 7.5 313.949219 7.5 L 368.375 7.5 C 371.976562 7.5 374.910156 10.4375 374.910156 14.042969 L 374.910156 90.957031 C 374.910156 94.5625 371.976562 97.5 368.375 97.5"/><path d="M 296.402344 306.214844 L 296.414062 306.226562 L 296.414062 306.214844 L 296.402344 306.214844 M 74.363281 364.03125 L 74.363281 364.046875 L 74.375 364.046875 L 74.363281 364.03125"/><path fill="#A6A6A6" d="M 300.863281 310.648438 L 300.863281 364.046875 L 296.402344 368.464844 L 79.214844 368.464844 L 74.375 364.046875 L 74.363281 364.03125 L 74.363281 310.648438 L 79.214844 306.214844 L 296.402344 306.214844 L 296.414062 306.226562 L 300.863281 310.648438"/><path fill="#FF1616" d="M 89.871094 310.027344 C 83.242188 310.027344 77.871094 314.730469 77.871094 320.527344 C 77.871094 326.328125 83.242188 331.027344 89.871094 331.027344 C 96.496094 331.027344 101.871094 326.328125 101.871094 320.527344 C 101.871094 314.730469 96.496094 310.027344 89.871094 310.027344"/><path fill="#FB0" d="M 104.894531 300.148438 L 269.878906 300.148438 L 269.878906 375.148438 L 104.894531 375.148438 L 104.894531 300.148438"/><path fill="#D9D9D9" d="M 89.953125 337.5 C 84.570312 337.5 80.203125 341.363281 80.203125 346.125 C 80.203125 350.886719 84.570312 354.75 89.953125 354.75 C 95.339844 354.75 99.703125 350.886719 99.703125 346.125 C 99.703125 341.363281 95.339844 337.5 89.953125 337.5"/><path fill="#222" d="M 284.972656 312.082031 C 279.589844 312.082031 275.222656 315.945312 275.222656 320.707031 C 275.222656 325.472656 279.589844 329.332031 284.972656 329.332031 C 290.359375 329.332031 294.722656 325.472656 294.722656 320.707031 C 294.722656 315.945312 290.359375 312.082031 284.972656 312.082031"/><path fill="#444" d="M 60.964844 322.722656 L 6.535156 322.722656 C 2.933594 322.722656 0 319.789062 0 316.183594 L 0 239.265625 C 0 235.664062 2.933594 232.726562 6.535156 232.726562 L 60.964844 232.726562 C 64.566406 232.726562 67.5 235.664062 67.5 239.265625 L 67.5 316.183594 C 67.5 319.789062 64.566406 322.722656 60.964844 322.722656"/><path fill="#444" d="M 368.375 322.722656 L 313.949219 322.722656 C 310.347656 322.722656 307.410156 319.789062 307.410156 316.183594 L 307.410156 239.265625 C 307.410156 235.664062 310.347656 232.726562 313.949219 232.726562 L 368.375 232.726562 C 371.976562 232.726562 374.910156 235.664062 374.910156 239.265625 L 374.910156 316.183594 C 374.910156 319.789062 371.976562 322.722656 368.375 322.722656"/></svg>