<svg xmlns="http://www.w3.org/2000/svg" width="375" viewBox="0 0 375 375" height="375" version="1.0"><defs><clipPath id="a"><path d="M 150.050781 0 L 225.050781 0 L 225.050781 37.496094 L 150.050781 37.496094 Z M 150.050781 0"/></clipPath></defs><path fill="#222" d="M 86.269531 151.5 L 42.730469 151.5 C 39.847656 151.5 37.5 149.144531 37.5 146.257812 L 37.5 48.742188 C 37.5 45.855469 39.847656 43.5 42.730469 43.5 L 86.269531 43.5 C 89.152344 43.5 91.5 45.855469 91.5 48.742188 L 91.5 146.257812 C 91.5 149.144531 89.152344 151.5 86.269531 151.5"/><path fill="#222" d="M 86.269531 331.679688 L 42.730469 331.679688 C 39.847656 331.679688 37.5 329.328125 37.5 326.4375 L 37.5 228.921875 C 37.5 226.035156 39.847656 223.679688 42.730469 223.679688 L 86.269531 223.679688 C 89.152344 223.679688 91.5 226.035156 91.5 228.921875 L 91.5 326.4375 C 91.5 329.328125 89.152344 331.679688 86.269531 331.679688"/><path fill="#FC0" d="M 91.570312 37.507812 L 283.570312 37.507812 L 283.570312 337.492188 L 91.570312 337.492188 L 91.570312 37.507812"/><path fill="#FB0" d="M 91.582031 37.5 L 283.558594 37.5 L 283.558594 97.5 L 91.582031 97.5 L 91.582031 37.5"/><path fill="#FB0" d="M 91.582031 277.558594 L 283.5625 277.558594 L 283.5625 337.558594 L 91.582031 337.558594 L 91.582031 277.558594"/><path fill="#222" d="M 332.199219 151.5 L 288.660156 151.5 C 285.777344 151.5 283.429688 149.144531 283.429688 146.257812 L 283.429688 48.742188 C 283.429688 45.855469 285.777344 43.5 288.660156 43.5 L 332.199219 43.5 C 335.078125 43.5 337.425781 45.855469 337.425781 48.742188 L 337.425781 146.257812 C 337.425781 149.144531 335.078125 151.5 332.199219 151.5"/><path fill="#222" d="M 332.199219 331.679688 L 288.660156 331.679688 C 285.777344 331.679688 283.429688 329.328125 283.429688 326.4375 L 283.429688 228.921875 C 283.429688 226.035156 285.777344 223.679688 288.660156 223.679688 L 332.199219 223.679688 C 335.078125 223.679688 337.425781 226.035156 337.425781 228.921875 L 337.425781 326.4375 C 337.425781 329.328125 335.078125 331.679688 332.199219 331.679688"/><path fill="#444" d="M 86.269531 115.5 L 42.730469 115.5 C 39.851562 115.5 37.503906 113.152344 37.503906 110.265625 L 37.503906 48.734375 C 37.503906 45.847656 39.851562 43.5 42.730469 43.5 L 86.269531 43.5 C 89.148438 43.5 91.496094 45.847656 91.496094 48.734375 L 91.496094 110.265625 C 91.496094 113.152344 89.148438 115.5 86.269531 115.5"/><path fill="#444" d="M 332.199219 115.5 L 288.660156 115.5 C 285.777344 115.5 283.429688 113.152344 283.429688 110.265625 L 283.429688 48.734375 C 283.429688 45.847656 285.777344 43.5 288.660156 43.5 L 332.199219 43.5 C 335.078125 43.5 337.425781 45.847656 337.425781 48.734375 L 337.425781 110.265625 C 337.425781 113.152344 335.078125 115.5 332.199219 115.5"/><path d="M 274.171875 282.472656 L 274.183594 282.484375 L 274.183594 282.472656 L 274.171875 282.472656 M 97 329.144531 L 97 329.152344 L 97.007812 329.152344 L 97 329.144531"/><path fill="#A6A6A6" d="M 277.730469 286.050781 L 277.730469 329.152344 L 274.171875 332.722656 L 100.871094 332.722656 L 97.007812 329.152344 L 97 329.144531 L 97 286.050781 L 100.871094 282.472656 L 274.171875 282.472656 L 274.183594 282.484375 L 277.730469 286.050781"/><path fill="#FF1616" d="M 109.546875 285.523438 C 104.160156 285.523438 99.796875 289.386719 99.796875 294.148438 C 99.796875 298.910156 104.160156 302.773438 109.546875 302.773438 C 114.929688 302.773438 119.296875 298.910156 119.296875 294.148438 C 119.296875 289.386719 114.929688 285.523438 109.546875 285.523438"/><path fill="#FB0" d="M 121.414062 277.621094 L 253.402344 277.621094 L 253.402344 337.621094 L 121.414062 337.621094 L 121.414062 277.621094"/><path fill="#D9D9D9" d="M 109.539062 307.5 C 105.1875 307.5 101.664062 310.523438 101.664062 314.25 C 101.664062 317.976562 105.1875 321 109.539062 321 C 113.886719 321 117.414062 317.976562 117.414062 314.25 C 117.414062 310.523438 113.886719 307.5 109.539062 307.5"/><path fill="#222" d="M 265.554688 287.164062 C 261.203125 287.164062 257.679688 290.1875 257.679688 293.914062 C 257.679688 297.644531 261.203125 300.664062 265.554688 300.664062 C 269.902344 300.664062 273.429688 297.644531 273.429688 293.914062 C 273.429688 290.1875 269.902344 287.164062 265.554688 287.164062"/><path fill="#444" d="M 86.269531 295.679688 L 42.730469 295.679688 C 39.851562 295.679688 37.503906 293.332031 37.503906 290.445312 L 37.503906 228.914062 C 37.503906 226.03125 39.851562 223.679688 42.730469 223.679688 L 86.269531 223.679688 C 89.148438 223.679688 91.496094 226.03125 91.496094 228.914062 L 91.496094 290.445312 C 91.496094 293.332031 89.148438 295.679688 86.269531 295.679688"/><path fill="#444" d="M 332.199219 295.679688 L 288.660156 295.679688 C 285.777344 295.679688 283.429688 293.332031 283.429688 290.445312 L 283.429688 228.914062 C 283.429688 226.03125 285.777344 223.679688 288.660156 223.679688 L 332.199219 223.679688 C 335.078125 223.679688 337.425781 226.03125 337.425781 228.914062 L 337.425781 290.445312 C 337.425781 293.332031 335.078125 295.679688 332.199219 295.679688"/><g clip-path="url(#a)"><path d="M 187.554688 0.0234375 L 168.800781 18.746094 L 150.050781 37.46875 L 225.050781 37.46875 L 206.304688 18.746094 L 187.554688 0.0195312 Z M 187.554688 0.0234375"/></g></svg>