<?xml version="1.0" encoding="UTF-8"?><svg xmlns="http://www.w3.org/2000/svg" xmlns:xlink="http://www.w3.org/1999/xlink" contentScriptType="text/ecmascript" width="375" zoomAndPan="magnify" contentStyleType="text/css" viewBox="0 0 375 374.999991" height="374.999991" preserveAspectRatio="xMidYMid meet" version="1.0"><defs><clipPath id="clip-0"><path d="M 137.320312 57.84375 L 322.570312 57.84375 L 322.570312 165.09375 L 137.320312 165.09375 Z M 137.320312 57.84375 " clip-rule="nonzero"/></clipPath></defs><path fill="rgb(0%, 50.19989%, 21.569824%)" d="M 97.386719 7.644531 L 97.386719 367.644531 C 98.4375 367.71875 99.492188 367.71875 100.546875 367.71875 L 273.847656 367.71875 L 273.847656 7.644531 Z M 300.960938 7.644531 L 273.847656 7.644531 L 273.847656 367.644531 L 274.453125 367.644531 C 318.285156 367.644531 356.773438 331.839844 359.933594 288.121094 L 374.773438 87.09375 C 378.011719 43.449219 344.796875 7.644531 300.960938 7.644531 Z M 74.039062 7.644531 C 30.203125 7.644531 -3.011719 43.449219 0.226562 87.167969 L 15.066406 288.199219 C 18.226562 330.859375 54.980469 365.984375 97.460938 367.644531 L 97.460938 7.644531 Z M 74.039062 7.644531 " fill-opacity="1" fill-rule="nonzero"/><path fill="rgb(100%, 100%, 100%)" d="M 128.917969 138.878906 L 137.589844 207.042969 L 150.160156 207.042969 L 158.832031 138.878906 Z M 136.875 214.117188 L 136.875 228.113281 L 150.875 228.113281 L 150.875 214.117188 Z M 143.886719 246.800781 C 143.296875 246.800781 142.707031 246.816406 142.125 246.824219 C 141.625 246.832031 141.128906 246.847656 140.628906 246.863281 L 140.195312 246.875 C 139.664062 246.894531 139.140625 246.914062 138.613281 246.941406 C 138.121094 246.964844 137.632812 246.984375 137.144531 247.015625 C 137.054688 247.023438 136.964844 247.023438 136.875 247.027344 C 120.742188 248.023438 106.238281 252.324219 95.507812 257.628906 C 89.378906 260.664062 84.484375 264.035156 81.292969 267.132812 C 78.101562 270.226562 76.886719 272.996094 76.886719 274.207031 C 76.886719 275.417969 77.800781 277.195312 80.847656 279.355469 C 83.894531 281.515625 88.757812 283.71875 94.910156 285.5625 C 107.214844 289.25 124.640625 291.628906 143.886719 291.628906 C 163.136719 291.628906 180.574219 289.25 192.878906 285.5625 C 199.03125 283.71875 203.890625 281.515625 206.941406 279.355469 C 209.988281 277.195312 210.898438 275.417969 210.898438 274.207031 C 210.898438 272.996094 209.683594 270.226562 206.496094 267.132812 C 203.304688 264.035156 198.410156 260.664062 192.28125 257.628906 C 181.550781 252.324219 167.039062 248.023438 150.898438 247.03125 C 150.808594 247.023438 150.722656 247.023438 150.632812 247.019531 C 150.144531 246.984375 149.65625 246.964844 149.164062 246.941406 C 148.636719 246.914062 148.109375 246.894531 147.578125 246.875 C 147.523438 246.875 147.46875 246.863281 147.414062 246.863281 C 147.320312 246.859375 147.226562 246.867188 147.132812 246.863281 C 146.644531 246.847656 146.15625 246.832031 145.664062 246.824219 C 145.074219 246.816406 144.480469 246.800781 143.886719 246.800781 Z M 143.886719 254.4375 C 154.671875 254.4375 164.425781 256.238281 171.140625 258.945312 C 174.5 260.296875 177.078125 261.890625 178.625 263.363281 C 180.175781 264.839844 180.632812 265.976562 180.632812 266.953125 C 180.632812 267.929688 180.175781 269.066406 178.625 270.542969 C 177.980469 271.15625 177.144531 271.789062 176.160156 272.417969 C 174.136719 265.960938 160.457031 260.960938 143.875 260.960938 C 127.300781 260.960938 113.636719 265.953125 111.601562 272.40625 C 110.621094 271.78125 109.792969 271.152344 109.148438 270.542969 C 107.597656 269.066406 107.144531 267.925781 107.144531 266.953125 C 107.144531 265.976562 107.597656 264.839844 109.148438 263.363281 C 110.699219 261.886719 113.273438 260.296875 116.632812 258.945312 C 123.347656 256.238281 133.101562 254.4375 143.886719 254.4375 Z M 69.277344 274.78125 C 60.246094 280.386719 54.996094 287.066406 54.996094 294.246094 C 54.996094 314.015625 94.789062 330.042969 143.875 330.042969 C 192.957031 330.042969 232.753906 314.015625 232.753906 294.246094 C 232.753906 287.078125 227.519531 280.40625 218.511719 274.804688 C 218.261719 279.1875 215.300781 282.792969 211.359375 285.585938 C 207.238281 288.503906 201.726562 290.878906 195.0625 292.878906 C 181.734375 296.875 163.753906 299.265625 143.886719 299.265625 C 124.023438 299.265625 106.039062 296.875 92.710938 292.878906 C 86.046875 290.882812 80.546875 288.507812 76.429688 285.585938 C 72.480469 282.789062 69.515625 279.175781 69.277344 274.78125 Z M 69.277344 274.78125 " fill-opacity="1" fill-rule="nonzero"/><g clip-path="url(#clip-0)"><path fill="rgb(100%, 100%, 100%)" d="M 137.320312 109.269531 L 322.558594 57.839844 L 264.820312 165.078125 L 211.59375 129.332031 L 322.285156 58.019531 L 205.429688 128.125 L 198.210938 164.171875 L 184.078125 124.355469 L 322.265625 58.011719 L 181.523438 121.640625 Z M 137.320312 109.269531 " fill-opacity="1" fill-rule="evenodd"/></g><path fill="rgb(100%, 100%, 100%)" d="M 201.808594 164.980469 L 225.625 143.222656 L 210.316406 131.917969 Z M 201.808594 164.980469 " fill-opacity="1" fill-rule="evenodd"/></svg>