<?xml version="1.0" encoding="UTF-8"?><svg xmlns="http://www.w3.org/2000/svg" xmlns:xlink="http://www.w3.org/1999/xlink" contentScriptType="text/ecmascript" width="375" zoomAndPan="magnify" contentStyleType="text/css" viewBox="0 0 375 374.999991" height="374.999991" preserveAspectRatio="xMidYMid meet" version="1.0"><defs><clipPath id="clip-0"><path d="M 62.046875 0 L 313 0 L 313 375 L 62.046875 375 Z M 62.046875 0 " clip-rule="nonzero"/></clipPath></defs><g clip-path="url(#clip-0)"><path fill="rgb(92.549133%, 39.219666%, 19.999695%)" d="M 187.65625 0 C 118.519531 0 62.480469 55.964844 62.480469 125.003906 C 62.480469 148.4375 68.9375 170.351562 80.167969 189.09375 L 187.652344 375.015625 L 295.21875 188.964844 C 306.398438 170.253906 312.828125 148.378906 312.828125 125.003906 C 312.832031 55.964844 256.792969 0 187.65625 0 Z M 187.65625 166.835938 C 164.523438 166.835938 145.769531 148.105469 145.773438 125.003906 C 145.773438 101.902344 164.527344 83.171875 187.65625 83.171875 C 210.792969 83.171875 229.546875 101.902344 229.546875 125.003906 C 229.546875 148.105469 210.792969 166.835938 187.65625 166.835938 Z M 187.65625 166.835938 " fill-opacity="1" fill-rule="nonzero"/></g></svg>