<svg width="375" height="374.999991" xmlns="http://www.w3.org/2000/svg" version="1.0" preserveAspectRatio="xMidYMid meet" contentStyleType="text/css" zoomAndPan="magnify" contentScriptType="text/ecmascript">

 <g>
  <title>Layer 1</title>
  <path id="svg_1" fill-rule="nonzero" d="m97.38672,7.64453l0,360c1.05078,0.07422 2.10547,0.07422 3.16016,0.07422l173.30078,0l0,-360.07422l-176.46094,0zm203.57422,0l-27.11328,0l0,360l0.60547,0c43.83203,0 82.32031,-35.80469 85.48046,-79.52344l14.83985,-201.02734c3.23828,-43.64453 -29.97656,-79.44922 -73.8125,-79.44922zm-226.92188,0c-43.83593,0 -77.05078,35.80469 -73.8125,79.52344l14.83985,201.03125c3.16015,42.66016 39.91406,77.78516 82.39453,79.44531l0,-360l-23.42188,0zm0,0" fill="#d00"/>
  <text font-weight="bold" font-style="normal" stroke="null" text-anchor="middle" font-size="300" stroke-width="0" id="svg_5" y="287.5" x="192.5" fill="#FFF">?</text>
 </g>
</svg>
