<svg width="375" height="375" xmlns="http://www.w3.org/2000/svg" version="1.0">
 <defs>
  <clipPath id="a">
   <path d="m44.92578,148.22656l285,0l0,164.25l-285,0l0,-164.25zm0,0" id="svg_1"/>
  </clipPath>
  <clipPath id="b">
   <path d="m144,261l37,0l0,51.47656l-37,0l0,-51.47656zm0,0" id="svg_2"/>
  </clipPath>
  <clipPath id="c">
   <path d="m80,43l219,0l0,118.64844l-219,0l0,-118.64844zm0,0" id="svg_3"/>
  </clipPath>
 </defs>
 <g>
  <title>Layer 1</title>
  <path fill="#919191" d="m97.38672,7.46289l0,360c1.05078,0.07422 2.10547,0.07422 3.16016,0.07422l173.30078,0l0,-360.07422l-176.46094,0m203.57422,0l-27.11328,0l0,360l0.60547,0c43.83203,0 82.32031,-35.80469 85.48046,-79.52344l14.83985,-201.03125c3.23828,-43.64062 -29.97656,-79.44531 -73.8125,-79.44531m-226.92188,0c-43.83593,0 -77.05078,35.80469 -73.8125,79.52344l14.83985,201.02734c3.16015,42.66406 39.91406,77.78906 82.39453,79.44922l0,-360l-23.42188,0" id="svg_4"/>
  <text font-weight="bold" font-style="normal" stroke="null" text-anchor="middle" font-size="300" stroke-width="0" id="svg_5" y="287.5" x="192.5" fill="#FFF">?</text>
 </g>
</svg>
